<?xml version="1.0" encoding="utf-8"?>
<!-- Generator: Adobe Illustrator 24.3.0, SVG Export Plug-In . SVG Version: 6.00 Build 0)  -->
<svg version="1.1" xmlns="http://www.w3.org/2000/svg" xmlns:xlink="http://www.w3.org/1999/xlink" x="0px" y="0px"
	 viewBox="0 0 1024 1024" style="enable-background:new 0 0 1024 1024;" xml:space="preserve">
<style type="text/css">
	.st0{fill:#FFFFFF;}
	.st1{fill:#FF3A35;}
	.st2{fill:#B44CC9;}
	.st3{fill:#566AFF;}
	.st4{fill:url(#SVGID_1_);}
</style>
<g id="Layer_1">
	<g>
		<path class="st0" d="M181.19,1022.88c-99.29,0-180.07-80.78-180.07-180.07V181.19C1.12,81.9,81.9,1.12,181.19,1.12h661.62
			c99.29,0,180.07,80.78,180.07,180.07v661.62c0,99.29-80.78,180.07-180.07,180.07H181.19z"/>
		<path d="M842.81,1v0.25c24.29,0,47.86,4.76,70.04,14.14c21.43,9.06,40.67,22.04,57.2,38.56c16.53,16.53,29.5,35.77,38.56,57.2
			c9.38,22.18,14.14,45.75,14.14,70.04l0,661.62c0,24.29-4.76,47.86-14.14,70.04c-9.06,21.43-22.04,40.67-38.56,57.2
			c-16.53,16.53-35.77,29.5-57.2,38.56c-22.18,9.38-45.75,14.14-70.04,14.14l-661.62,0c-24.29,0-47.86-4.76-70.04-14.14
			c-21.43-9.06-40.67-22.04-57.2-38.56c-16.53-16.53-29.5-35.77-38.56-57.2C6.01,890.67,1.25,867.1,1.25,842.81l0-661.62
			c0-24.29,4.76-47.86,14.14-70.04c9.06-21.43,22.04-40.67,38.56-57.2c16.53-16.53,35.77-29.5,57.2-38.56
			c22.18-9.38,45.75-14.14,70.04-14.14l661.62,0V1 M842.81,1L181.19,1C81.67,1,1,81.67,1,181.19l0,661.62
			C1,942.33,81.67,1023,181.19,1023l661.62,0c99.52,0,180.19-80.67,180.19-180.19l0-661.62C1023,81.67,942.33,1,842.81,1L842.81,1z"
			/>
	</g>
	<path class="st1" d="M874.48,731.82L566.14,885.99c-31.83,15.92-83.45,15.92-115.28,0L142.52,731.82
		c-31.83-15.92-31.83-41.72,0-57.64l308.34-154.17c31.83-15.92,83.45-15.92,115.28,0l308.34,154.17
		C906.31,690.1,906.31,715.9,874.48,731.82z"/>
	<path class="st2" d="M883.81,617.47l-313.55,158.8c-32.37,16.4-84.63,16.85-116.72,1.01l-310.85-153.4
		c-32.09-15.84-31.87-41.97,0.5-58.36l313.55-158.8c32.37-16.4,84.63-16.85,116.72-1.01l310.85,153.4
		C916.4,574.95,916.18,601.08,883.81,617.47z"/>
</g>
<g id="Icon">
	<path class="st3" d="M883.7,498.6L569.57,658.56c-32.43,16.51-84.69,17.16-116.72,1.44L142.58,507.76
		c-32.03-15.72-31.71-41.85,0.72-58.36l314.13-159.96c32.43-16.51,84.69-17.16,116.72-1.44l310.27,152.24
		C916.45,455.96,916.13,482.09,883.7,498.6z"/>
	
		<linearGradient id="SVGID_1_" gradientUnits="userSpaceOnUse" x1="144.9268" y1="372.9783" x2="910.2036" y2="372.9783" gradientTransform="matrix(1.0495 7.650970e-03 7.650970e-03 1.0495 -40.0124 -33.4622)">
		<stop  offset="0" style="stop-color:#606060"/>
		<stop  offset="0" style="stop-color:#606060"/>
		<stop  offset="0" style="stop-color:#5F6666"/>
		<stop  offset="0" style="stop-color:#5D7676"/>
		<stop  offset="0" style="stop-color:#599191"/>
		<stop  offset="0" style="stop-color:#53B7B7"/>
		<stop  offset="0" style="stop-color:#4DE6E6"/>
		<stop  offset="0" style="stop-color:#49FFFF"/>
		<stop  offset="0.2457" style="stop-color:#6BFFFF"/>
		<stop  offset="0.3657" style="stop-color:#69FFFF"/>
		<stop  offset="0.4089" style="stop-color:#62FFFF"/>
		<stop  offset="0.4396" style="stop-color:#57FFFF"/>
		<stop  offset="0.4605" style="stop-color:#49FFFF"/>
		<stop  offset="0.5606" style="stop-color:#47FCFF"/>
		<stop  offset="0.6329" style="stop-color:#41F3FF"/>
		<stop  offset="0.6964" style="stop-color:#36E3FF"/>
		<stop  offset="0.7028" style="stop-color:#35E1FF"/>
		<stop  offset="0.8467" style="stop-color:#3AC4FA"/>
		<stop  offset="1" style="stop-color:#3FA9F5"/>
	</linearGradient>
	<path class="st4" d="M893.69,394.43L577.25,550.92c-32.67,16.16-85.83,15.77-118.74-0.87L139.75,388.94
		c-32.91-16.63-33.1-43.22-0.43-59.37l316.44-156.48c32.67-16.16,85.83-15.77,118.74,0.87l318.76,161.11
		C926.16,351.7,926.36,378.28,893.69,394.43z"/>
</g>
</svg>
